<?xml version="1.0" standalone="no"?>
<!DOCTYPE svg PUBLIC "-//W3C//DTD SVG 20010904//EN"
 "http://www.w3.org/TR/2001/REC-SVG-20010904/DTD/svg10.dtd">
<svg version="1.0" xmlns="http://www.w3.org/2000/svg"
 width="237.000000pt" height="237.000000pt" viewBox="0 0 237.000000 237.000000"
 preserveAspectRatio="xMidYMid meet">
<metadata>
Created by potrace 1.11, written by Peter Selinger 2001-2013
</metadata>
<g transform="translate(0.000000,237.000000) scale(0.100000,-0.100000)"
fill="#000000" stroke="none">
<path d="M609 2277 c-36 -28 -39 -51 -39 -339 l0 -283 218 218 217 217 -1 42
c-1 24 -2 58 -3 76 -1 21 -10 42 -26 57 -24 25 -27 25 -187 25 -112 -1 -168
-4 -179 -13z"/>
<path d="M1061 1988 c-130 -128 -237 -234 -240 -235 -22 -13 51 -17 302 -18
l292 -1 89 86 c96 92 107 111 95 152 -7 26 -168 195 -219 231 -58 40 -66 34
-319 -215z"/>
<path d="M1056 1622 c-12 -3 44 -65 199 -219 l216 -214 149 3 c141 3 150 4
174 27 26 24 26 26 26 177 0 91 -5 163 -11 177 -22 49 -36 50 -397 51 -186 1
-346 -1 -356 -2z"/>
<path d="M715 1594 c-21 -14 -62 -51 -92 -81 l-53 -56 0 -648 c0 -454 3 -655
11 -672 6 -14 22 -30 36 -36 31 -14 304 -15 336 0 49 22 48 9 48 693 1 724 7
671 -78 746 -98 87 -142 99 -208 54z m130 -129 c66 -65 -8 -171 -94 -135 -83
34 -55 160 36 160 23 0 42 -8 58 -25z"/>
<path d="M1114 1070 l1 -300 85 -85 c88 -88 127 -108 168 -86 12 6 68 59 126
119 87 88 106 112 106 137 0 17 -6 39 -14 50 -17 24 -453 459 -464 463 -5 1
-8 -133 -8 -298z"/>
</g>
</svg>
